<?xml version="1.0" encoding="utf-8"?>
<!-- Generator: Adobe Illustrator 14.0.0, SVG Export Plug-In . SVG Version: 6.00 Build 43363)  -->
<!DOCTYPE svg PUBLIC "-//W3C//DTD SVG 1.1//EN" "http://www.w3.org/Graphics/SVG/1.1/DTD/svg11.dtd">
<svg version="1.1" id="レイヤー_1" xmlns="http://www.w3.org/2000/svg" xmlns:xlink="http://www.w3.org/1999/xlink" x="0px"
	 y="0px" width="1200px" height="900px" viewBox="0 0 1200 900" enable-background="new 0 0 1200 900" xml:space="preserve">
<symbol  id="droonga" viewBox="-57.612 -66.611 115.225 133.221">
	<linearGradient id="SVGID_1_" gradientUnits="userSpaceOnUse" x1="-22.7896" y1="0" x2="27.1524" y2="0">
		<stop  offset="0" style="stop-color:#9DCEEC"/>
		<stop  offset="1" style="stop-color:#12253B"/>
	</linearGradient>
	<path fill="url(#SVGID_1_)" stroke="#38003F" stroke-width="6" stroke-linecap="round" stroke-linejoin="round" d="M54.612,40.088
		c0,12.993-24.451,23.522-54.614,23.522c-30.159,0-54.61-10.529-54.61-23.522c0-8.289,0-71.884,0-80.173
		c0-12.994,24.451-23.525,54.61-23.525c30.163,0,54.614,10.531,54.614,23.525C54.612-31.796,54.612,31.799,54.612,40.088z"/>
	<linearGradient id="SVGID_2_" gradientUnits="userSpaceOnUse" x1="-52.0498" y1="0" x2="49.5796" y2="0">
		<stop  offset="0.0061" style="stop-color:#AE5881"/>
		<stop  offset="1" style="stop-color:#61114A"/>
	</linearGradient>
	<path fill="url(#SVGID_2_)" d="M54.612,40.088c0,12.993-24.451,23.522-54.614,23.522c-30.159,0-54.61-10.529-54.61-23.522
		c0-8.289,0-71.884,0-80.173c0-12.994,24.451-23.525,54.61-23.525c30.163,0,54.614,10.531,54.614,23.525
		C54.612-31.796,54.612,31.799,54.612,40.088z"/>
	<linearGradient id="SVGID_3_" gradientUnits="userSpaceOnUse" x1="-110.5322" y1="84.1133" x2="139.211" y2="-15.361">
		<stop  offset="0.0061" style="stop-color:#AE5881"/>
		<stop  offset="1" style="stop-color:#90196E"/>
	</linearGradient>
	<path fill="url(#SVGID_3_)" d="M54.612,40.088c0-12.993-24.451-23.522-54.614-23.522c-30.159,0-54.61,10.529-54.61,23.522
		c0,12.99,24.451,23.522,54.61,23.522C30.161,63.61,54.612,53.078,54.612,40.088z"/>
	<path id="path164_2_" inkscape:connector-curvature="0" fill="#FFFFFF" d="M-2.521,6.063C-5.015,3.569-6.91,0.349-7.899-3.183
		c-6.492,0.097-13.004-2.434-18.174-7.602c-8.7-8.703-11.41-24.488,0.717-36.612c10.195-10.199,25.431-10.351,35.423-0.354
		c4.727,4.728,7.733,11.229,7.8,18.109c3.354,0.894,6.544,2.678,9.266,5.395c7.438,7.438,9.715,20.22-0.33,30.266
		C18.423,14.392,5.825,14.403-2.521,6.063z M24.871-15.763c-1.431-1.435-3.261-2.486-5.277-3.065
		c-3.235-0.924-4.972-0.829-6.089-2.683c-1.107-1.856-0.99-2.076-0.937-5.553c0.062-3.944-1.43-8.031-5.147-11.756
		c-5.684-5.68-16.185-6.942-23.902,0.774c-6.084,6.089-8.94,16.333-0.832,24.438c3.004,3.006,7.34,4.78,11.887,4.707
		c3.166-0.058,3.537-0.173,5.571,0.748c2.045,0.931,1.157,2.992,2.371,6.634c0.599,1.777,1.65,3.521,3.31,5.175
		c4.408,4.41,12.525,5.421,18.479-0.521C29.141-1.712,31.199-9.434,24.871-15.763L24.871-15.763z"/>
</symbol>
<symbol  id="新規シンボル" viewBox="-147.808 -87.2 295.616 174.399">
	<path fill="none" stroke="#000000" stroke-width="6" stroke-linecap="round" stroke-linejoin="round" d="M144.808,16.653
		L45.215,84.199L-132.46,7.417l0,0l-9.551,6.478c-1.539,1.044-2.797,0.419-2.797-1.389V1.99c0-1.808,1.259-4.142,2.797-5.185
		l118.693-80.499c1.539-1.045,2.797-0.42,2.797,1.388v10.425L144.808-0.434V16.653z M-138.549,0.026
		c-1.399,0.949-2.534,3.051-2.534,4.694s1.134,2.207,2.534,1.258c1.399-0.949,2.533-3.051,2.533-4.694S-137.15-0.922-138.549,0.026z
		 M-24.246-74.52c0-1.645-1.134-2.207-2.534-1.258c-0.316,0.214-0.618,0.491-0.897,0.805l3.313,1.432
		C-24.288-73.877-24.246-74.206-24.246-74.52z"/>
	<g>
		<linearGradient id="SVGID_4_" gradientUnits="userSpaceOnUse" x1="67.0527" y1="-49.1221" x2="48.7097" y2="-17.9399">
			<stop  offset="0" style="stop-color:#78849C"/>
			<stop  offset="1" style="stop-color:#0A0F1A"/>
		</linearGradient>
		<polygon fill="url(#SVGID_4_)" stroke="#262F36" stroke-linecap="round" stroke-linejoin="round" points="-32.868,-77.216 
			144.808,-0.434 144.808,16.653 -32.868,-60.128 		"/>
		<linearGradient id="SVGID_5_" gradientUnits="userSpaceOnUse" x1="-170.3628" y1="11.8018" x2="158.7207" y2="12.2377">
			<stop  offset="0" style="stop-color:#78849C"/>
			<stop  offset="1" style="stop-color:#0A0F1A"/>
		</linearGradient>
		<polygon fill="url(#SVGID_5_)" points="144.808,16.653 45.215,84.199 -132.46,7.417 -32.868,-60.128 		"/>
		<linearGradient id="SVGID_6_" gradientUnits="userSpaceOnUse" x1="-77.3232" y1="-16.3486" x2="-85.6048" y2="-45.1162">
			<stop  offset="0" style="stop-color:#CBD0DB"/>
			<stop  offset="1" style="stop-color:#7A89AB"/>
		</linearGradient>
		<path fill="url(#SVGID_6_)" stroke="#9EACB5" d="M-23.317-66.605l-118.693,80.5c-1.539,1.044-2.797,0.419-2.797-1.389V1.99
			c0-1.808,1.259-4.142,2.797-5.185l118.693-80.499c1.539-1.045,2.797-0.42,2.797,1.388v10.517
			C-20.52-69.981-21.779-67.648-23.317-66.605z M-138.549,0.026c-1.399,0.949-2.534,3.051-2.534,4.694s1.134,2.207,2.534,1.258
			c1.399-0.949,2.533-3.051,2.533-4.694S-137.15-0.922-138.549,0.026z M-26.779-75.777c-1.399,0.949-2.533,3.05-2.533,4.693
			c0,1.645,1.134,2.207,2.533,1.258c1.399-0.948,2.534-3.051,2.534-4.693C-24.246-76.164-25.38-76.727-26.779-75.777z"/>
		<linearGradient id="SVGID_7_" gradientUnits="userSpaceOnUse" x1="-94.5254" y1="-84.6035" x2="-71.1297" y2="13.4365">
			<stop  offset="0" style="stop-color:#78849C"/>
			<stop  offset="1" style="stop-color:#0A0F1A"/>
		</linearGradient>
		<polygon fill="url(#SVGID_7_)" stroke="#262F36" stroke-linecap="round" stroke-linejoin="round" points="-32.868,-77.216 
			-132.46,-9.672 -132.46,7.417 -32.868,-60.128 		"/>
		<g>
			<linearGradient id="SVGID_8_" gradientUnits="userSpaceOnUse" x1="-53.5122" y1="-63.5684" x2="-64.0037" y2="-47.8314">
				<stop  offset="0" style="stop-color:#78849C"/>
				<stop  offset="1" style="stop-color:#0A0F1A"/>
			</linearGradient>
			<polygon fill="url(#SVGID_8_)" stroke="#00071F" stroke-linecap="round" stroke-linejoin="round" points="-54.801,-62.331 
				-59.869,-58.896 -59.869,-53.335 -54.801,-56.772 			"/>
			<linearGradient id="SVGID_9_" gradientUnits="userSpaceOnUse" x1="-48.7651" y1="-65.2002" x2="-58.1161" y2="-54.7085">
				<stop  offset="0" style="stop-color:#78849C"/>
				<stop  offset="1" style="stop-color:#0A0F1A"/>
			</linearGradient>
			<polygon fill="url(#SVGID_9_)" stroke="#00071F" stroke-linecap="round" stroke-linejoin="round" points="-49.734,-65.769 
				-54.801,-62.331 -54.801,-56.772 -49.734,-60.209 			"/>
			<polygon fill="#2DDF00" stroke="#00071F" stroke-linecap="round" stroke-linejoin="round" points="-44.667,-69.205 
				-49.734,-65.769 -49.734,-60.209 -44.667,-63.646 			"/>
		</g>
	</g>
</symbol>
<g>
	<g>
		<path fill="none" stroke="#A8357A" stroke-width="6" stroke-linecap="round" stroke-linejoin="round" d="M924.676,292.279
			c0-19.693-138.839-35.653-310.114-35.653c-171.252,0-310.09,15.959-310.09,35.653c0,12.563,0,129.144,0,141.708
			c0,19.695,138.838,35.658,310.09,35.658c171.275,0,310.114-15.963,310.114-35.658
			C924.676,421.423,924.676,304.842,924.676,292.279z"/>
		<g>
			<linearGradient id="SVGID_10_" gradientUnits="userSpaceOnUse" x1="319.022" y1="363.1357" x2="896.0994" y2="363.1357">
				<stop  offset="0.0061" style="stop-color:#FAE1EC"/>
				<stop  offset="1" style="stop-color:#E0A3CF"/>
			</linearGradient>
			<path fill="url(#SVGID_10_)" d="M924.676,292.279c0-19.693-138.839-35.653-310.114-35.653
				c-171.252,0-310.09,15.959-310.09,35.653c0,12.563,0,129.144,0,141.708c0,19.695,138.838,35.658,310.09,35.658
				c171.275,0,310.114-15.963,310.114-35.658C924.676,421.423,924.676,304.842,924.676,292.279z"/>
			<linearGradient id="SVGID_11_" gradientUnits="userSpaceOnUse" x1="-4.5781" y1="45.668" x2="1394.3728" y2="602.8788">
				<stop  offset="0.0061" style="stop-color:#E8BED2"/>
				<stop  offset="1" style="stop-color:#D150AC"/>
			</linearGradient>
			<path fill="url(#SVGID_11_)" d="M924.676,292.279c0,19.694-138.839,35.653-310.114,35.653
				c-171.252,0-310.09-15.959-310.09-35.653c0-19.689,138.838-35.653,310.09-35.653C785.837,256.626,924.676,272.59,924.676,292.279
				z"/>
		</g>
	</g>
	<g>
		<g>
			
				<use xlink:href="#新規シンボル"  width="295.616" height="174.399" x="-147.808" y="-87.2" transform="matrix(0.6383 0 0 -0.6383 408.3198 373.4194)" overflow="visible"/>
			
				<use xlink:href="#droonga"  width="115.225" height="133.221" x="-57.612" y="-66.611" transform="matrix(0.6383 0 0 -0.6383 410.105 337.8003)" overflow="visible"/>
		</g>
		<text transform="matrix(1 0 0 1 429.2354 423.9092)"><tspan x="0" y="0" font-family="'KozGoPro-Medium-90ms-RKSJ-H'" font-size="24">replica</tspan><tspan x="0" y="24" font-family="'KozGoPro-Medium-90ms-RKSJ-H'" font-size="24">(aaaa)</tspan></text>
	</g>
	<g>
		<g>
			
				<use xlink:href="#新規シンボル"  width="295.616" height="174.399" x="-147.808" y="-87.2" transform="matrix(0.6383 0 0 -0.6383 614.5732 386.4668)" overflow="visible"/>
			
				<use xlink:href="#droonga"  width="115.225" height="133.221" x="-57.612" y="-66.611" transform="matrix(0.6383 0 0 -0.6383 616.3584 350.8467)" overflow="visible"/>
		</g>
		<text transform="matrix(1 0 0 1 636.5723 437.7104)"><tspan x="0" y="0" font-family="'KozGoPro-Medium-90ms-RKSJ-H'" font-size="24">replica</tspan><tspan x="0" y="24" font-family="'KozGoPro-Medium-90ms-RKSJ-H'" font-size="24">(bbbb)</tspan></text>
	</g>
	<g opacity="0.5">
		<g>
			
				<use xlink:href="#新規シンボル"  width="295.616" height="174.399" x="-147.808" y="-87.2" transform="matrix(0.6383 0 0 -0.6383 817.4902 384.6572)" overflow="visible"/>
			
				<use xlink:href="#droonga"  width="115.225" height="133.221" x="-57.612" y="-66.611" transform="matrix(0.6383 0 0 -0.6383 819.2734 349.041)" overflow="visible"/>
		</g>
		<text transform="matrix(1 0 0 1 842.2803 431.6279)" display="none"><tspan x="0" y="0" display="inline" font-family="'KozGoPro-Medium-90ms-RKSJ-H'" font-size="24">replica</tspan><tspan x="0" y="24" display="inline" font-family="'KozGoPro-Medium-90ms-RKSJ-H'" font-size="24">(cccc)</tspan></text>
	</g>
</g>
<g id="join" display="none">
	<g id="read" display="inline">
		<text transform="matrix(1 0 0 1 834.2803 555.0977)"><tspan x="0" y="0" fill="#7F0D00" font-family="'KozGoPro-Heavy-90ms-RKSJ-H'" font-size="24">2. replic</tspan><tspan x="89.254" y="0" fill="#7F0D00" font-family="'KozGoPro-Heavy-90ms-RKSJ-H'" font-size="24" letter-spacing="6">a</tspan><tspan x="108.79" y="0" fill="#7F0D00" font-family="'KozGoPro-Heavy-90ms-RKSJ-H'" font-size="24">として</tspan><tspan x="6.396" y="24" fill="#7F0D00" font-family="'KozGoPro-Heavy-90ms-RKSJ-H'" font-size="24">クラスタに登録</tspan></text>
	</g>
	<g display="inline">
		<g>
			<path fill="none" stroke="#5A007F" stroke-width="10" d="M553.021,429.079c-19.639,44.123-1.076,96.489,42.402,112.004"/>
			<polygon fill="#5A007F" points="571.534,550.559 593.208,540.292 582.932,518.615 596.485,523.451 606.756,545.127 
				585.086,555.395 			"/>
		</g>
	</g>
	<g display="inline">
		<g>
			<path fill="none" stroke="#7F0D00" stroke-width="10" d="M787.729,541.083c42.635-20.043,50.24-63.846,42.065-98.957"/>
			<polygon fill="#7F0D00" points="850.686,457.096 830.327,444.418 817.653,464.786 814.39,450.771 827.065,430.409 
				847.423,443.081 			"/>
		</g>
	</g>
	<g id="read_1_" display="inline">
		<text transform="matrix(1 0 0 1 336.2397 541.082)"><tspan x="0" y="0" fill="#5A007F" font-family="'KozGoPro-Heavy-90ms-RKSJ-H'" font-size="24">1. 既</tspan><tspan x="49.992" y="0" fill="#5A007F" font-family="'KozGoPro-Heavy-90ms-RKSJ-H'" font-size="24" letter-spacing="6">存</tspan><tspan x="79.992" y="0" fill="#5A007F" font-family="'KozGoPro-Heavy-90ms-RKSJ-H'" font-size="24">replic</tspan><tspan x="143.254" y="0" fill="#5A007F" font-family="'KozGoPro-Heavy-90ms-RKSJ-H'" font-size="24" letter-spacing="6">a</tspan><tspan x="162.79" y="0" fill="#5A007F" font-family="'KozGoPro-Heavy-90ms-RKSJ-H'" font-size="24">から</tspan><tspan x="21.396" y="24" fill="#5A007F" font-family="'KozGoPro-Heavy-90ms-RKSJ-H'" font-size="24">データベースの</tspan><tspan x="33.396" y="48" fill="#5A007F" font-family="'KozGoPro-Heavy-90ms-RKSJ-H'" font-size="24">内容をコピー</tspan></text>
	</g>
	<g display="inline">
		<g>
			
				<use xlink:href="#新規シンボル"  width="295.616" height="174.399" x="-147.808" y="-87.2" transform="matrix(0.6383 0 0 -0.6383 700.2266 576.6992)" overflow="visible"/>
			
				<use xlink:href="#droonga"  width="115.225" height="133.221" x="-57.612" y="-66.611" transform="matrix(0.6383 0 0 -0.6383 702.0098 541.083)" overflow="visible"/>
		</g>
		<text transform="matrix(1 0 0 1 725.0166 623.6709)"><tspan x="0" y="0" font-family="'KozGoPro-Medium-90ms-RKSJ-H'" font-size="24">new replica</tspan><tspan x="0" y="24" font-family="'KozGoPro-Medium-90ms-RKSJ-H'" font-size="24">(cccc)</tspan></text>
	</g>
</g>
<g id="unjoin_1_">
	<g id="read_3_">
		<text transform="matrix(1 0 0 1 616.8291 541.083)"><tspan x="0" y="0" fill="#7F0D00" font-family="'KozGoPro-Heavy-90ms-RKSJ-H'" font-size="24">クラスタから</tspan><tspan x="-17.399" y="24" fill="#7F0D00" font-family="'KozGoPro-Heavy-90ms-RKSJ-H'" font-size="24">replic</tspan><tspan x="45.863" y="24" fill="#7F0D00" font-family="'KozGoPro-Heavy-90ms-RKSJ-H'" font-size="24" letter-spacing="6">a</tspan><tspan x="65.399" y="24" fill="#7F0D00" font-family="'KozGoPro-Heavy-90ms-RKSJ-H'" font-size="24">としての</tspan><tspan x="12" y="48" fill="#7F0D00" font-family="'KozGoPro-Heavy-90ms-RKSJ-H'" font-size="24">登録を抹消</tspan></text>
	</g>
	<g>
		<g>
			<path fill="none" stroke="#7F0D00" stroke-width="10" d="M762.613,442.887c-9.481,46.147,21.043,78.47,54.058,92.951"/>
			<polygon fill="#7F0D00" points="792.172,543.604 814.516,534.893 805.795,512.545 818.973,518.324 827.688,540.671 
				805.35,549.385 			"/>
		</g>
	</g>
	<g>
		<g>
			
				<use xlink:href="#新規シンボル"  width="295.616" height="174.399" x="-147.808" y="-87.2" transform="matrix(0.6383 0 0 -0.6383 914.0322 576.6992)" overflow="visible"/>
			
				<use xlink:href="#droonga"  width="115.225" height="133.221" x="-57.612" y="-66.611" transform="matrix(0.6383 0 0 -0.6383 915.8154 541.083)" overflow="visible"/>
		</g>
		<text transform="matrix(1 0 0 1 938.8223 623.6709)"><tspan x="0" y="0" font-family="'KozGoPro-Medium-90ms-RKSJ-H'" font-size="24">replica</tspan><tspan x="0" y="24" font-family="'KozGoPro-Medium-90ms-RKSJ-H'" font-size="24">(cccc)</tspan></text>
	</g>
</g>
</svg>
